<?xml version="1.0" encoding="UTF-8"?>
<svg width="700pt" height="700pt" version="1.1" viewBox="0 0 700 700" xmlns="http://www.w3.org/2000/svg" xmlns:xlink="http://www.w3.org/1999/xlink">
 <defs>
  <symbol id="f" overflow="visible">
   <path d="m20.844-1.25c-1.0742 0.5625-2.1953 0.98438-3.3594 1.2656-1.168 0.28125-2.3828 0.42188-3.6406 0.42188-3.7812 0-6.7773-1.0508-8.9844-3.1562-2.2109-2.1133-3.3125-4.9766-3.3125-8.5938 0-3.625 1.1016-6.4922 3.3125-8.6094 2.207-2.1133 5.2031-3.1719 8.9844-3.1719 1.2578 0 2.4727 0.14844 3.6406 0.4375 1.1641 0.28125 2.2852 0.69922 3.3594 1.25v4.7031c-1.0859-0.73828-2.1523-1.2812-3.2031-1.625-1.0547-0.34375-2.1641-0.51562-3.3281-0.51562-2.0859 0-3.7266 0.66797-4.9219 2-1.1992 1.3359-1.7969 3.1797-1.7969 5.5312 0 2.3359 0.59766 4.1719 1.7969 5.5156 1.1953 1.3359 2.8359 2 4.9219 2 1.1641 0 2.2734-0.17188 3.3281-0.51562 1.0508-0.34375 2.1172-0.88281 3.2031-1.625z"/>
  </symbol>
  <symbol id="e" overflow="visible">
   <path d="m15.25-12.375c-0.48047-0.22656-0.95312-0.39453-1.4219-0.5-0.46875-0.10156-0.94531-0.15625-1.4219-0.15625-1.3984 0-2.4766 0.44922-3.2344 1.3438-0.75 0.89844-1.125 2.1797-1.125 3.8438v7.8438h-5.4375v-17.016h5.4375v2.7969c0.69531-1.1133 1.5-1.9258 2.4062-2.4375 0.90625-0.50781 1.9922-0.76562 3.2656-0.76562 0.17578 0 0.36719 0.011719 0.57812 0.03125 0.21875 0.011719 0.53125 0.042969 0.9375 0.09375z"/>
  </symbol>
  <symbol id="b" overflow="visible">
   <path d="m19.594-8.5469v1.5469h-12.719c0.13281 1.2734 0.59766 2.2305 1.3906 2.875 0.78906 0.63672 1.8945 0.95312 3.3125 0.95312 1.1445 0 2.3164-0.16406 3.5156-0.5 1.1953-0.34375 2.4297-0.85938 3.7031-1.5469v4.1875c-1.293 0.49219-2.5859 0.85547-3.875 1.0938-1.2812 0.25-2.5625 0.375-3.8438 0.375-3.0859 0-5.4805-0.78125-7.1875-2.3438-1.6992-1.5625-2.5469-3.7539-2.5469-6.5781 0-2.7812 0.83203-4.9609 2.5-6.5469 1.6758-1.5938 3.9844-2.3906 6.9219-2.3906 2.6758 0 4.8164 0.80859 6.4219 2.4219 1.6016 1.6055 2.4062 3.7578 2.4062 6.4531zm-5.5938-1.8125c0-1.0312-0.30469-1.8633-0.90625-2.5-0.59375-0.63281-1.3828-0.95312-2.3594-0.95312-1.0547 0-1.9062 0.29688-2.5625 0.89062s-1.0703 1.4492-1.2344 2.5625z"/>
  </symbol>
  <symbol id="j" overflow="visible">
   <path d="m10.234-7.6562c-1.1367 0-1.9922 0.19531-2.5625 0.57812-0.5625 0.38672-0.84375 0.95312-0.84375 1.7031 0 0.6875 0.22656 1.2305 0.6875 1.625 0.45703 0.38672 1.0977 0.57812 1.9219 0.57812 1.0195 0 1.8789-0.36328 2.5781-1.0938 0.69531-0.73828 1.0469-1.6602 1.0469-2.7656v-0.625zm8.3125-2.0469v9.7031h-5.4844v-2.5156c-0.73047 1.0312-1.5547 1.7812-2.4688 2.25-0.90625 0.46875-2.0117 0.70312-3.3125 0.70312-1.7617 0-3.1953-0.50781-4.2969-1.5312-1.0938-1.0312-1.6406-2.3672-1.6406-4.0156 0-1.9883 0.67969-3.4453 2.0469-4.375 1.375-0.9375 3.5312-1.4062 6.4688-1.4062h3.2031v-0.42188c0-0.86328-0.33984-1.4922-1.0156-1.8906-0.67969-0.40625-1.7344-0.60938-3.1719-0.60938-1.168 0-2.2578 0.12109-3.2656 0.35938-1 0.23047-1.9297 0.57812-2.7812 1.0469v-4.1562c1.1641-0.28125 2.332-0.49219 3.5-0.64062 1.1758-0.14453 2.3516-0.21875 3.5312-0.21875 3.0703 0 5.2852 0.60547 6.6406 1.8125 1.3633 1.2109 2.0469 3.1797 2.0469 5.9062z"/>
  </symbol>
  <symbol id="a" overflow="visible">
   <path d="m8.5469-21.844v4.8281h5.6094v3.8906h-5.6094v7.2188c0 0.79297 0.15625 1.3281 0.46875 1.6094 0.32031 0.27344 0.94531 0.40625 1.875 0.40625h2.7969v3.8906h-4.6719c-2.1484 0-3.668-0.44531-4.5625-1.3438-0.89844-0.89453-1.3438-2.4141-1.3438-4.5625v-7.2188h-2.7031v-3.8906h2.7031v-4.8281z"/>
  </symbol>
  <symbol id="i" overflow="visible">
   <path d="m14.188-14.516v-9.125h5.4688v23.641h-5.4688v-2.4531c-0.75 1-1.5781 1.7344-2.4844 2.2031-0.89844 0.45703-1.9375 0.6875-3.125 0.6875-2.0938 0-3.8203-0.83203-5.1719-2.5-1.3438-1.6641-2.0156-3.8047-2.0156-6.4219 0-2.625 0.67188-4.7695 2.0156-6.4375 1.3516-1.6641 3.0781-2.5 5.1719-2.5 1.1758 0 2.2188 0.23438 3.125 0.70312s1.7344 1.2031 2.4844 2.2031zm-3.5781 11c1.1562 0 2.0391-0.42188 2.6562-1.2656 0.61328-0.85156 0.92188-2.0859 0.92188-3.7031 0-1.625-0.30859-2.8594-0.92188-3.7031-0.61719-0.85156-1.5-1.2812-2.6562-1.2812s-2.043 0.42969-2.6562 1.2812c-0.61719 0.84375-0.92188 2.0781-0.92188 3.7031 0 1.6172 0.30469 2.8516 0.92188 3.7031 0.61328 0.84375 1.5 1.2656 2.6562 1.2656z"/>
  </symbol>
  <symbol id="h" overflow="visible">
   <path d="m11.672-3.5156c1.1562 0 2.0391-0.42188 2.6562-1.2656 0.61328-0.85156 0.92188-2.0859 0.92188-3.7031 0-1.625-0.30859-2.8594-0.92188-3.7031-0.61719-0.85156-1.5-1.2812-2.6562-1.2812-1.168 0-2.0625 0.42969-2.6875 1.2812-0.625 0.85547-0.9375 2.0898-0.9375 3.7031 0 1.6055 0.3125 2.8359 0.9375 3.6875 0.625 0.85547 1.5195 1.2812 2.6875 1.2812zm-3.625-11c0.75-1 1.5781-1.7344 2.4844-2.2031 0.91406-0.46875 1.9688-0.70312 3.1562-0.70312 2.0938 0 3.8125 0.83594 5.1562 2.5 1.3516 1.668 2.0312 3.8125 2.0312 6.4375 0 2.6172-0.67969 4.7578-2.0312 6.4219-1.3438 1.668-3.0625 2.5-5.1562 2.5-1.1875 0-2.2422-0.23438-3.1562-0.70312-0.90625-0.46875-1.7344-1.1953-2.4844-2.1875v2.4531h-5.4375v-23.641h5.4375z"/>
  </symbol>
  <symbol id="g" overflow="visible">
   <path d="m0.375-17.016h5.4375l4.5781 11.547 3.8906-11.547h5.4375l-7.1562 18.625c-0.71875 1.8945-1.5586 3.2188-2.5156 3.9688-0.96094 0.75781-2.2188 1.1406-3.7812 1.1406h-3.1562v-3.5781h1.7031c0.92578 0 1.5977-0.14844 2.0156-0.4375 0.41406-0.29297 0.74219-0.82031 0.98438-1.5781l0.14062-0.46875z"/>
  </symbol>
  <symbol id="d" overflow="visible">
   <path d="m2.4375-6.625v-10.391h5.4688v1.7031c0 0.92969-0.007812 2.0898-0.015625 3.4844-0.011719 1.3867-0.015625 2.3125-0.015625 2.7812 0 1.3672 0.03125 2.3516 0.09375 2.9531 0.070312 0.60547 0.19531 1.043 0.375 1.3125 0.21875 0.35547 0.50391 0.63281 0.85938 0.82812 0.36328 0.1875 0.78125 0.28125 1.25 0.28125 1.1328 0 2.0234-0.42969 2.6719-1.2969 0.64453-0.875 0.96875-2.0859 0.96875-3.6406v-8.4062h5.4375v17.016h-5.4375v-2.4531c-0.82422 0.99219-1.6953 1.7188-2.6094 2.1875-0.91797 0.46875-1.9297 0.70312-3.0312 0.70312-1.9609 0-3.4531-0.59766-4.4844-1.7969-1.0234-1.207-1.5312-2.9609-1.5312-5.2656z"/>
  </symbol>
  <symbol id="s" overflow="visible">
   <path d="m8.0469-2.4531v8.9219h-5.4375v-23.484h5.4375v2.5c0.75-1 1.5781-1.7344 2.4844-2.2031 0.91406-0.46875 1.9688-0.70312 3.1562-0.70312 2.0938 0 3.8125 0.83594 5.1562 2.5 1.3516 1.668 2.0312 3.8125 2.0312 6.4375 0 2.6172-0.67969 4.7578-2.0312 6.4219-1.3438 1.668-3.0625 2.5-5.1562 2.5-1.1875 0-2.2422-0.23438-3.1562-0.70312-0.90625-0.46875-1.7344-1.1953-2.4844-2.1875zm3.625-11.016c-1.168 0-2.0625 0.42969-2.6875 1.2812-0.625 0.85547-0.9375 2.0898-0.9375 3.7031 0 1.6055 0.3125 2.8359 0.9375 3.6875 0.625 0.85547 1.5195 1.2812 2.6875 1.2812 1.1562 0 2.0391-0.42188 2.6562-1.2656 0.61328-0.85156 0.92188-2.0859 0.92188-3.7031 0-1.625-0.30859-2.8594-0.92188-3.7031-0.61719-0.85156-1.5-1.2812-2.6562-1.2812z"/>
  </symbol>
  <symbol id="c" overflow="visible">
   <path d="m10.703-13.531c-1.1992 0-2.1172 0.43359-2.75 1.2969-0.63672 0.86719-0.95312 2.1172-0.95312 3.75 0 1.625 0.31641 2.8711 0.95312 3.7344 0.63281 0.86719 1.5508 1.2969 2.75 1.2969 1.1875 0 2.0938-0.42969 2.7188-1.2969 0.63281-0.86328 0.95312-2.1094 0.95312-3.7344 0-1.6328-0.32031-2.8828-0.95312-3.75-0.625-0.86328-1.5312-1.2969-2.7188-1.2969zm0-3.8906c2.9258 0 5.2109 0.79297 6.8594 2.375 1.6445 1.5742 2.4688 3.7617 2.4688 6.5625 0 2.793-0.82422 4.9805-2.4688 6.5625-1.6484 1.5742-3.9336 2.3594-6.8594 2.3594-2.9375 0-5.2344-0.78516-6.8906-2.3594-1.6484-1.582-2.4688-3.7695-2.4688-6.5625 0-2.8008 0.82031-4.9883 2.4688-6.5625 1.6562-1.582 3.9531-2.375 6.8906-2.375z"/>
  </symbol>
  <symbol id="r" overflow="visible">
   <path d="m13.812-23.641v3.5781h-3.0156c-0.77344 0-1.3086 0.14062-1.6094 0.42188-0.30469 0.27344-0.45312 0.75-0.45312 1.4375v1.1875h4.6406v3.8906h-4.6406v13.125h-5.4375v-13.125h-2.7031v-3.8906h2.7031v-1.1875c0-1.8516 0.51562-3.2227 1.5469-4.1094 1.0312-0.88281 2.6289-1.3281 4.7969-1.3281z"/>
  </symbol>
  <symbol id="q" overflow="visible">
   <path d="m18.375-14.188c0.6875-1.0508 1.5039-1.8516 2.4531-2.4062 0.94531-0.55078 1.9883-0.82812 3.125-0.82812 1.957 0 3.4453 0.60547 4.4688 1.8125 1.0195 1.1992 1.5312 2.9492 1.5312 5.25v10.359h-5.4688v-8.875c0.007813-0.125 0.015625-0.25781 0.015625-0.40625 0.007812-0.14453 0.015625-0.34766 0.015625-0.60938 0-1.207-0.17969-2.082-0.53125-2.625-0.35547-0.53906-0.92969-0.8125-1.7188-0.8125-1.0312 0-1.8281 0.42969-2.3906 1.2812-0.5625 0.85547-0.85547 2.0859-0.875 3.6875v8.3594h-5.4688v-8.875c0-1.8828-0.16406-3.0977-0.48438-3.6406-0.32422-0.53906-0.90234-0.8125-1.7344-0.8125-1.043 0-1.8516 0.43359-2.4219 1.2969-0.5625 0.85547-0.84375 2.0742-0.84375 3.6562v8.375h-5.4688v-17.016h5.4688v2.5c0.66406-0.96875 1.4297-1.6914 2.2969-2.1719 0.875-0.48828 1.832-0.73438 2.875-0.73438 1.1758 0 2.2109 0.28906 3.1094 0.85938 0.90625 0.5625 1.5859 1.3555 2.0469 2.375z"/>
  </symbol>
  <symbol id="p" overflow="visible">
   <path d="m19.719-10.359v10.359h-5.4688v-7.9062c0-1.4766-0.039062-2.4922-0.10938-3.0469-0.0625-0.5625-0.17188-0.97656-0.32812-1.25-0.21875-0.35156-0.51172-0.62891-0.875-0.82812-0.36719-0.19531-0.77734-0.29688-1.2344-0.29688-1.1367 0-2.0312 0.44531-2.6875 1.3281-0.64844 0.875-0.96875 2.0859-0.96875 3.625v8.375h-5.4375v-23.641h5.4375v9.125c0.82031-1 1.6914-1.7344 2.6094-2.2031 0.92578-0.46875 1.9453-0.70312 3.0625-0.70312 1.957 0 3.4453 0.60547 4.4688 1.8125 1.0195 1.1992 1.5312 2.9492 1.5312 5.25z"/>
  </symbol>
  <symbol id="o" overflow="visible">
   <path d="m2.8594-22.672h6.5312l8.25 15.547v-15.547h5.5469v22.672h-6.5469l-8.2344-15.562v15.562h-5.5469z"/>
  </symbol>
  <symbol id="n" overflow="visible">
   <path d="m19.719-10.359v10.359h-5.4688v-7.9219c0-1.4688-0.039062-2.4766-0.10938-3.0312-0.0625-0.5625-0.17188-0.97656-0.32812-1.25-0.21875-0.35156-0.51172-0.62891-0.875-0.82812-0.36719-0.19531-0.77734-0.29688-1.2344-0.29688-1.1367 0-2.0312 0.44531-2.6875 1.3281-0.64844 0.875-0.96875 2.0859-0.96875 3.625v8.375h-5.4375v-17.016h5.4375v2.5c0.82031-1 1.6914-1.7344 2.6094-2.2031 0.92578-0.46875 1.9453-0.70312 3.0625-0.70312 1.957 0 3.4453 0.60547 4.4688 1.8125 1.0195 1.1992 1.5312 2.9492 1.5312 5.25z"/>
  </symbol>
  <symbol id="m" overflow="visible">
   <path d="m2.8594-22.672h9.7031c2.8828 0 5.0977 0.64062 6.6406 1.9219 1.5508 1.2812 2.3281 3.1055 2.3281 5.4688 0 2.375-0.77734 4.2031-2.3281 5.4844-1.543 1.2812-3.7578 1.9219-6.6406 1.9219h-3.8594v7.875h-5.8438zm5.8438 4.2344v6.3281h3.2344c1.1328 0 2.0078-0.27344 2.625-0.82812 0.625-0.55078 0.9375-1.332 0.9375-2.3438 0-1.0078-0.3125-1.7852-0.9375-2.3281-0.61719-0.55078-1.4922-0.82812-2.625-0.82812z"/>
  </symbol>
  <symbol id="l" overflow="visible">
   <path d="m2.6094-17.016h5.4375v16.719c0 2.2695-0.54688 4.0039-1.6406 5.2031-1.0938 1.207-2.6797 1.8125-4.75 1.8125h-2.6875v-3.5781h0.9375c1.0312 0 1.7383-0.23438 2.125-0.70312 0.38281-0.46094 0.57812-1.3711 0.57812-2.7344zm0-6.625h5.4375v4.4375h-5.4375z"/>
  </symbol>
  <symbol id="k" overflow="visible">
   <path d="m16.359-16.484v4.4375c-0.74219-0.50781-1.4844-0.88281-2.2344-1.125-0.74219-0.23828-1.5117-0.35938-2.3125-0.35938-1.5117 0-2.6953 0.44531-3.5469 1.3281-0.84375 0.88672-1.2656 2.125-1.2656 3.7188 0 1.5859 0.42188 2.8203 1.2656 3.7031 0.85156 0.88672 2.0352 1.3281 3.5469 1.3281 0.85156 0 1.6602-0.125 2.4219-0.375 0.76953-0.25 1.4766-0.625 2.125-1.125v4.4531c-0.85547 0.3125-1.7188 0.54688-2.5938 0.70312s-1.75 0.23438-2.625 0.23438c-3.0742 0-5.4766-0.78516-7.2031-2.3594-1.7305-1.5703-2.5938-3.7578-2.5938-6.5625 0-2.8125 0.86328-5.0039 2.5938-6.5781 1.7266-1.5703 4.1289-2.3594 7.2031-2.3594 0.88281 0 1.7578 0.078125 2.625 0.23438 0.86328 0.15625 1.7266 0.39062 2.5938 0.70312z"/>
  </symbol>
 </defs>
 <g>
  <path d="m349.95 61.219c5.543 0 12.699 3.5273 21.328 9.1094 8.6172 5.5742 18.18 12.863 30.59 16.203 12.406 3.3398 24.305 1.75 34.551 1.2305 10.234-0.51562 18.207 0.070312 23.004 2.8203s9.2695 9.3633 13.961 18.504c4.668 9.1406 9.2695 20.223 18.375 29.301 9.0781 9.1016 20.16 13.707 29.301 18.375 9.1016 4.668 15.75 9.1719 18.512 13.961 2.7422 4.793 3.3047 12.762 2.7812 23.012-0.48437 10.242-2.0781 22.137 1.2617 34.547 3.3047 12.414 10.633 21.969 16.203 30.594 5.5742 8.6133 9.1172 15.781 9.1172 21.324 0 5.5117-3.5352 12.676-9.1172 21.293-5.5703 8.625-12.891 18.176-16.203 30.594-3.3398 12.414-1.75 24.305-1.2617 34.547 0.52344 10.242-0.039062 18.219-2.7812 23.012-2.7578 4.7969-9.4062 9.3008-18.512 13.969-9.1406 4.668-20.223 9.2656-29.301 18.363-9.1016 9.0859-13.707 20.168-18.375 29.309-4.6914 9.1406-9.1641 15.75-13.961 18.504-4.7969 2.7891-12.773 3.3398-23.004 2.8203-10.242-0.51562-22.145-2.1016-34.551 1.2266-12.406 3.3398-21.969 10.672-30.59 16.207-8.6289 5.5703-15.785 9.1016-21.328 9.1016-5.5078 0-12.711-3.5352-21.293-9.1016-8.6172-5.543-18.18-12.867-30.59-16.207-12.445-3.3281-24.305-1.7422-34.551-1.2266-10.242 0.52344-18.219-0.0625-23.016-2.8203-4.7969-2.75-9.2969-9.3633-13.957-18.504-4.6719-9.1406-9.2695-20.223-18.379-29.309-9.1094-9.0977-20.191-13.695-29.293-18.363-9.1406-4.668-15.75-9.1797-18.512-13.969-2.7812-4.7969-3.3359-12.77-2.8203-23.012 0.52344-10.242 2.1094-22.102-1.2266-34.547-3.3359-12.418-10.66-21.969-16.203-30.594-5.5742-8.6172-9.1094-15.781-9.1094-21.293 0-5.543 3.5352-12.711 9.1094-21.324 5.5508-8.625 12.867-18.18 16.203-30.594 3.3359-12.406 1.75-24.305 1.2266-34.547-0.51562-10.246 0.039063-18.227 2.8203-23.012 2.7578-4.7969 9.3711-9.2969 18.512-13.961 9.1016-4.668 20.184-9.2695 29.293-18.375 9.1094-9.0781 13.707-20.16 18.379-29.301 4.6602-9.1406 9.1641-15.75 13.957-18.504 4.793-2.7578 12.77-3.3359 23.016-2.8203s22.109 2.1094 34.551-1.2305c12.406-3.3359 21.969-10.629 30.59-16.203 8.582-5.5781 15.789-9.1094 21.293-9.1094zm0-23.492c-13.871 0-24.766 6.8438-34.066 12.836-9.332 6.0234-17.559 11.535-23.883 13.258-6.3203 1.6875-16.27 1-27.352 0.44922-11.07-0.54688-23.875-1.0312-35.91 5.9297-12.02 6.9375-18.074 18.312-23.141 28.191-5.0508 9.8555-9.4258 18.73-14.062 23.371-4.6367 4.6289-13.516 9.0039-23.363 14.062-9.8867 5.0586-21.293 11.117-28.23 23.141-6.9375 12.027-6.4766 24.852-5.9297 35.934 0.58984 11.09 1.2695 21.008-0.44922 27.328-1.6875 6.3203-7.1914 14.555-13.223 23.887-6.0352 9.2969-12.867 20.184-12.867 34.09 0 13.871 6.8398 24.758 12.867 34.066 6.0312 9.332 11.535 17.559 13.223 23.883 1.7188 6.3203 1.0391 16.27 0.44922 27.352-0.54688 11.043-1.0078 23.883 5.9297 35.91 6.9375 12.027 18.344 18.082 28.23 23.141 9.8516 5.0508 18.73 9.4336 23.363 14.055 4.6367 4.6406 9.0117 13.527 14.062 23.375 5.0586 9.8867 11.117 21.262 23.141 28.223 12.035 6.9375 24.84 6.4766 35.91 5.8984 11.082-0.55469 21.012-1.2305 27.352 0.48438 6.3203 1.6875 14.547 7.1914 23.883 13.215 9.3047 6.0234 20.203 12.863 34.066 12.863s24.758-6.8398 34.09-12.867c9.3086-6.0234 17.57-11.535 23.895-13.215 6.3203-1.7188 16.234-1.0391 27.32-0.48438 11.082 0.57813 23.918 1.0391 35.934-5.8984 11.996-6.9609 18.02-18.336 23.102-28.223 5.0586-9.8516 9.4648-18.734 14.098-23.375 4.6406-4.625 13.488-9.0039 23.371-14.055 9.8828-5.0586 21.254-11.113 28.191-23.141s6.4766-24.859 5.9297-35.91c-0.54688-11.082-1.2266-21.039 0.44922-27.352 1.7227-6.3203 7.2305-14.547 13.223-23.883 6.0312-9.3008 12.867-20.199 12.867-34.066 0-13.902-6.8438-24.789-12.867-34.09-5.9922-9.332-11.5-17.566-13.223-23.887-1.6797-6.3203-0.99609-16.277-0.44922-27.328 0.54688-11.082 1.0078-23.91-5.9297-35.934-6.9375-12.02-18.312-18.082-28.191-23.141-9.8828-5.0586-18.73-9.4336-23.371-14.062-4.6289-4.6406-9.0391-13.516-14.098-23.371-5.0781-9.8828-11.105-21.254-23.102-28.191-12.02-6.9609-24.852-6.4766-35.934-5.9297-11.082 0.55469-21 1.2305-27.32-0.44922-6.3203-1.7188-14.586-7.2383-23.895-13.258-9.332-5.9961-20.219-12.832-34.09-12.832z"/>
  <path d="m247.77 286.97h21.293v88.473h-21.293c-5.7695 0-10.496-4.6406-10.496-11.344v-65.816c0-6.7148 4.7266-11.312 10.496-11.312zm118.13-122.63c3.2656 3.8516 5.5742 10.789 6.9375 18.73 2.4883 14.328 1.4805 24.234-1.1094 36.492-0.87891 4.2109-1.3984 7.8398-1.0703 11.891 0.35547 4.0508 2.1797 9.0664 5.8359 12.344 7.3555 6.5469 14 5.1836 20.32 5.1836h48.453c9.7812 0 12.312 2.9805 14.801 7.9414 2.4648 4.9844 2.918 13.031 1.8867 18.344l-19.445 97.516c-1.8477 9.3633-4.5117 12.668-8.4922 15.102-3.9883 2.4648-11.105 3.957-21.996 3.957h-72.434c-12.969-0.77734-30.039-7.3906-46.996-12.676l-0.003906-99.27c21.039-26.793 47.113-49.777 58.102-88.113 3.8281-13.348 3.7891-25.176 5.25-31.109 1.2695-5.2461 8.5 1.9531 9.9609 3.668zm-27.168-22.262c-4.043 4.7969-5.1133 9.8828-5.9688 14.516-1.6172 9.2266-1.7969 18.668-4.6914 28.68-8.6562 30.266-30.59 50.363-52.598 78.168h-27.703c-18.891 0-33.992 15.973-33.992 34.84v65.82c0 18.859 15.102 34.871 33.992 34.871h28.391c0.52344 0.1875 1.0312 0.39062 1.5547 0.54297 17.789 4.9336 38.734 14.629 60.73 15.859h0.67969 72.895c12.762 0 24.328-1.3359 34.32-7.4531 9.9805-6.1211 16.551-17.055 19.25-30.531l19.406-97.508c1.9805-9.8867 1.8125-22-3.8516-33.414-5.6758-11.375-18.766-20.961-35.879-20.961h-48.453c-1.5938 0-2.2695-0.070312-2.0781-1.0703 2.9883-13.777 4.2812-28 1.2617-45.371-1.7734-10.273-4.9609-20.223-11.145-28.617-6.1602-8.3984-16.141-14.91-25.535-15.375-9.4023-0.48047-16.535 2.1758-20.586 7.0039z"/>
  <use x="70" y="653.332031" xlink:href="#f"/>
  <use x="92.832031" y="653.332031" xlink:href="#e"/>
  <use x="108.175781" y="653.332031" xlink:href="#b"/>
  <use x="129.273437" y="653.332031" xlink:href="#j"/>
  <use x="150.269531" y="653.332031" xlink:href="#a"/>
  <use x="165.140625" y="653.332031" xlink:href="#b"/>
  <use x="186.242188" y="653.332031" xlink:href="#i"/>
  <use x="219.34375" y="653.332031" xlink:href="#h"/>
  <use x="241.613281" y="653.332031" xlink:href="#g"/>
  <use x="272.722656" y="653.332031" xlink:href="#f"/>
  <use x="295.554688" y="653.332031" xlink:href="#d"/>
  <use x="317.703125" y="653.332031" xlink:href="#s"/>
  <use x="339.972656" y="653.332031" xlink:href="#d"/>
  <use x="362.121094" y="653.332031" xlink:href="#a"/>
  <use x="376.996094" y="653.332031" xlink:href="#c"/>
  <use x="70" y="684.445312" xlink:href="#r"/>
  <use x="83.535156" y="684.445312" xlink:href="#e"/>
  <use x="98.878906" y="684.445312" xlink:href="#c"/>
  <use x="120.25" y="684.445312" xlink:href="#q"/>
  <use x="163.5" y="684.445312" xlink:href="#a"/>
  <use x="178.371094" y="684.445312" xlink:href="#p"/>
  <use x="200.519531" y="684.445312" xlink:href="#b"/>
  <use x="232.453125" y="684.445312" xlink:href="#o"/>
  <use x="258.488281" y="684.445312" xlink:href="#c"/>
  <use x="279.863281" y="684.445312" xlink:href="#d"/>
  <use x="302.011719" y="684.445312" xlink:href="#n"/>
  <use x="334.992188" y="684.445312" xlink:href="#m"/>
  <use x="357.792969" y="684.445312" xlink:href="#e"/>
  <use x="373.136719" y="684.445312" xlink:href="#c"/>
  <use x="394.507812" y="684.445312" xlink:href="#l"/>
  <use x="405.171875" y="684.445312" xlink:href="#b"/>
  <use x="426.273437" y="684.445312" xlink:href="#k"/>
  <use x="444.714844" y="684.445312" xlink:href="#a"/>
 </g>
</svg>
